<?xml version="1.0" encoding="UTF-8"?>
<svg xmlns="http://www.w3.org/2000/svg" viewBox="0 0 1200 630" width="1200" height="630">
  <defs>
    <linearGradient id="g1832" x1="96.025242672622%" y1="30.463443575536292%" x2="3.9747573273779935%" y2="69.53655642446371%">
      <stop offset="0%" stop-color="#0891B2"/>
      <stop offset="100%" stop-color="#0E7490"/>
    </linearGradient>
  </defs>
  <rect width="1200" height="630" fill="url(#g1832)"/>
  <rect x="360.2276664227247" y="368.11515275388956" width="28" height="81.88484724611044" rx="3" fill="rgba(255,255,255,0.06273628078401089)"/><rect x="400.2276664227247" y="317.85062571056187" width="28" height="132.14937428943813" rx="3" fill="rgba(255,255,255,0.11395912136882544)"/><rect x="440.2276664227247" y="276.6496025118977" width="28" height="173.35039748810232" rx="3" fill="rgba(255,255,255,0.07177328696474433)"/><rect x="480.2276664227247" y="282.64392512850463" width="28" height="167.35607487149537" rx="3" fill="rgba(255,255,255,0.10600448563694953)"/><rect x="520.2276664227247" y="248.00572321750224" width="28" height="201.99427678249776" rx="3" fill="rgba(255,255,255,0.13912598259747028)"/><rect x="560.2276664227247" y="260.2067860867828" width="28" height="189.7932139132172" rx="3" fill="rgba(255,255,255,0.11933699434623121)"/><rect x="600.2276664227247" y="303.6884995736182" width="28" height="146.31150042638183" rx="3" fill="rgba(255,255,255,0.1307740621082485)"/><path d="M 600 430.6228243280202 L 650 390.4581456875894 L 700 356.71419859165326 L 750 332.77674208628014 L 800 298.46451193792745 L 850 265.20023255143315 L 900 236.9840030989144 L 950 216.98516908101737 L 1000 177.0808984769974 L 1050 159.608860113658 L 1100 144.04742275946774" fill="none" stroke="rgba(255,255,255,0.18)" stroke-width="2.5"/><text x="877.6274364441633" y="144.36731403693557" font-family="sans-serif" font-size="88.8149368390441" fill="rgba(255,255,255,0.08946313102031128)">£</text><text x="686.9867131114006" y="270.4011017456651" font-family="sans-serif" font-size="70.05060740280896" fill="rgba(255,255,255,0.09401967465644703)">$</text><text x="545.5365892499685" y="256.37282780371606" font-family="sans-serif" font-size="66.51460128836334" fill="rgba(255,255,255,0.07155695461435244)">£</text><text x="266.7188366409391" y="297.4412539973855" font-family="sans-serif" font-size="93.74301321804523" fill="rgba(255,255,255,0.05711162345018238)">¥</text><text x="1044.1830746363848" y="275.3372042439878" font-family="sans-serif" font-size="59.50143020134419" fill="rgba(255,255,255,0.046814990260172634)">₹</text><circle cx="901.594341499731" cy="260.1054738461971" r="67.15486912988126" fill="none" stroke="rgba(255,255,255,0.1)" stroke-width="2"/><line x1="901.594341499731" y1="260.1054738461971" x2="860.1230826998576" y2="207.28586440609047" stroke="rgba(255,255,255,0.1)" stroke-width="2"/><line x1="901.594341499731" y1="260.1054738461971" x2="874.0897910973363" y2="198.8414864228045" stroke="rgba(255,255,255,0.1)" stroke-width="2"/><line x1="901.594341499731" y1="260.1054738461971" x2="938.0342671912906" y2="316.51387981060185" stroke="rgba(255,255,255,0.1)" stroke-width="2"/>
  <circle cx="888.2012506015599" cy="296.45514857489616" r="1.1723237331025302" fill="rgba(255,255,255,0.07579337880713866)"/><circle cx="533.110152091831" cy="141.8136587063782" r="2.438619507011026" fill="rgba(255,255,255,0.05124580697854981)"/><circle cx="2.969627548009157" cy="261.64006975712255" r="1.9331739745102823" fill="rgba(255,255,255,0.03496664858656004)"/><circle cx="439.66118451207876" cy="159.20363799668849" r="2.8621201678179204" fill="rgba(255,255,255,0.05739440799923613)"/><circle cx="882.9048925079405" cy="221.0671256831847" r="1.914374680723995" fill="rgba(255,255,255,0.07687808176968247)"/><circle cx="192.65409847721457" cy="327.64457340119407" r="1.6943045537918806" fill="rgba(255,255,255,0.03560611460823566)"/><circle cx="948.4714418649673" cy="424.3628765596077" r="2.607213262002915" fill="rgba(255,255,255,0.07945829587522894)"/><circle cx="549.1397936828434" cy="111.71694749733433" r="1.7495048381388187" fill="rgba(255,255,255,0.045150725992862135)"/><circle cx="978.9942774921656" cy="386.56197720905766" r="1.289098220411688" fill="rgba(255,255,255,0.04585970831802115)"/><circle cx="582.1872241795063" cy="368.40989409713075" r="2.5806250609457493" fill="rgba(255,255,255,0.07218550638761372)"/><circle cx="856.4935432747006" cy="407.24047534167767" r="2.3920205030590296" fill="rgba(255,255,255,0.057394672518130394)"/><circle cx="197.60919967666268" cy="383.6652911338024" r="2.007220192346722" fill="rgba(255,255,255,0.07724138746969403)"/><circle cx="576.5481306239963" cy="539.9136247392744" r="1.5843828180804849" fill="rgba(255,255,255,0.05205299778142944)"/><circle cx="314.4138260744512" cy="246.32051828317344" r="2.279696151614189" fill="rgba(255,255,255,0.06865432216553018)"/><circle cx="152.53729205578566" cy="270.4338101972826" r="1.399690359365195" fill="rgba(255,255,255,0.04136927672196179)"/><circle cx="383.66652242839336" cy="239.9203310860321" r="2.22265770053491" fill="rgba(255,255,255,0.0687763429316692)"/><circle cx="975.8947628550231" cy="364.6502463729121" r="2.746882250998169" fill="rgba(255,255,255,0.05129653684096411)"/><circle cx="1186.601638700813" cy="410.2794443699531" r="2.9781788969412446" fill="rgba(255,255,255,0.05107947983313352)"/><circle cx="261.5439550951123" cy="468.55800424469635" r="1.7984378039836884" fill="rgba(255,255,255,0.05298014702973887)"/><circle cx="320.310677960515" cy="161.8647709256038" r="2.3561614844948053" fill="rgba(255,255,255,0.044001012709923085)"/>
  <text x="600" y="335" font-family="system-ui, -apple-system, 'Segoe UI', sans-serif" font-size="68" font-weight="700" fill="rgba(0,0,0,0.15)" text-anchor="middle" letter-spacing="1">RBI Grade B</text>
  <text x="600" y="332" font-family="system-ui, -apple-system, 'Segoe UI', sans-serif" font-size="68" font-weight="700" fill="white" text-anchor="middle" letter-spacing="1">RBI Grade B</text>
  <g transform="translate(1140, 575)">
    <rect x="0" y="0" width="40" height="40" rx="8" fill="rgba(255,255,255,0.15)"/>
    <text x="20" y="29" font-family="sans-serif" font-weight="bold" font-size="24" fill="rgba(255,255,255,0.6)" text-anchor="middle">K</text>
  </g>
</svg>